Patient4_TMGait_0pt6_02_right_41_EMG.mot
version=1
nRows=20
nColumns=33
inDegrees=no
endheader
time	1LAddLong	2LGlutMax	3LGlutMed	4LIliopsoas	5LSemiMemb	6LBicFemLong	7LRecFem	8LVastMed	9LVastLat	10LGasMed	11LTibAnt	12lTibPost	13LPeroneusLong	14LSol	15LExtDigLong	16LFlexDigLong	17RAddLong	18RGlutMax	19RGlutMed	20RIliopsoas	21RSemiMemb	22RBicFemLong	23RRecFem	24RVastMed	25RVastLat	26RGasMed	27RTibAnt	28RTibPost	29RPeroneusLong	30RSol	31RExtDigLong	32RFlexDigLong
50.33	0.022278	0.23697	-0.003204	0.007019	0.038605	0.059357	-0.066986	-0.004883	-0.050812	-0.023193	0.016479	0.012512	0.018768	0.023193	0.003662	-0.019226	0.046387	0.007477	0.2681	-0.008392	-0.18036	0.16861	-0.42145	-0.018921	-0.016022	-0.16983	0.16953	-0.015259	-0.55328	-0.40436	-0.002594	-0.014191
50.331	0.007477	0.22369	0.000305	0.00351	0.005188	0.071411	-0.032959	0.012512	-0.10101	-0.021057	0.00473	0.011749	-0.031738	0.039368	0.006866	-0.01236	0.024719	-0.005035	0.30685	0.027618	0.050049	-0.05188	-0.44678	0.028839	-0.009003	-0.22308	-0.19852	-0.028076	-1.1378	-0.62759	0	-0.014648
50.332	-0.01297	0.20599	-0.006256	0.012817	-0.014801	0.084381	0.00412	-0.001831	-0.15808	-0.012665	0.001678	0.011749	0.023041	0.025787	0.006409	-0.019684	0.010223	0.007935	0.1857	0.068512	0.22278	-0.16327	-0.43961	0.023499	-0.011597	-0.1651	-0.3212	-0.038757	-1.0394	-0.44311	-0.001831	-0.006409
50.333	-0.020294	0.15472	0.005951	0.033875	-0.078125	0.093079	0.028992	0.004425	-0.15076	-0.019989	-0.001984	0.010071	0.16861	0.050659	0.007172	-0.015259	0.001221	-0.054169	0.18738	0.010986	0.17975	-0.1152	-0.45853	0.036469	-0.006409	0.021667	-0.22171	-0.050964	-0.29312	0.021057	-0.001678	-0.001068
50.334	-0.027618	0.10162	0.007019	0.005188	-0.084076	0.080109	0.046234	0.009308	-0.15488	-0.013885	-0.011139	0.012665	0.11078	0.02655	-0.006104	-0.010834	-0.002594	-0.12344	0.20523	-0.10284	0.064697	0.03479	-0.46173	0.093536	0.010834	0.11643	-0.12695	-0.082397	-0.063324	0.30243	0.002747	-0.000458
50.335	-0.041351	0.064545	0.002289	-0.006866	-0.041504	0.039215	-0.001068	0.012817	-0.087128	-0.009613	0.002899	0.013123	-0.054169	0.029144	-0.009308	-0.014343	-0.002441	-0.1091	0.21408	-0.14084	-0.11566	0.15427	-0.49698	0.12161	0.024109	0.14252	-0.14297	-0.23956	0.27863	0.58334	-0.001678	-0.000305
50.336	-0.037537	0.074463	-0.009308	-0.001068	0.025482	0.024414	-0.047607	0.026245	0.062103	-0.014038	0.021515	0.00351	-0.068665	0.031128	0.009155	-0.021515	-0.015106	-0.088043	0.17517	-0.10513	-0.27206	0.13031	-0.45548	0.086365	-0.006256	0.10086	-0.16419	0.066223	0.45807	0.086212	0.00351	-0.015564
50.337	-0.031128	0.11383	-0.003052	0.026855	-0.001678	0.011139	-0.073853	-0.000305	0.17151	-0.021057	0.015869	0.013733	-0.016022	0.035858	0.003357	-0.010071	0.007629	-0.058746	0.20248	-0.070038	0.21332	-0.092163	-0.47028	0.081787	-0.00885	0.10529	-0.13763	-0.103	0.23499	-0.33539	-0.002747	-0.010376
50.338	-0.009613	0.14847	0.005951	0.027466	-0.042572	-0.005493	-0.14481	-0.004883	0.16007	-0.010529	0.001831	0.005646	0.19699	-0.005951	-0.019073	-0.009308	0.019989	-0.11841	0.12573	-0.047302	0.28412	0.063782	-0.42999	-0.024719	-0.015259	0.067444	-0.051117	0.37506	0.033264	0.21515	-0.006409	-0.015259
50.339	0.014191	0.19608	0.046692	0.003357	0.053253	0.029449	-0.18066	-0.023956	0.059357	-0.001526	0.002136	0.019379	0.16983	0.03006	-0.00061	-0.001221	0.034027	-0.21454	0.054474	-0.063171	0.22476	0.14206	-0.42267	0.010986	-0.028992	0.045776	0.066071	0.2002	0.009155	0.2803	-0.001984	-0.014343
50.34	0.016785	0.24704	0.019836	0.017395	0.090332	0.071716	-0.1593	-0.043945	-0.081177	-0.003357	-0.00061	0.008698	0.003204	0.050812	0.001221	-0.006256	0.047302	-0.22354	-0.051117	-0.019226	0.15701	0.020905	-0.41702	-0.029449	-0.022278	0.03006	0.20126	0.047607	0.017853	0.41412	-0.002289	-0.008545
50.341	0.034027	0.25803	0.0383	0.015106	0.13886	0.065155	-0.14648	-0.041809	-0.043793	-0.006866	0.005341	0.004883	-0.036926	0.065765	-0.005188	0.006866	0.03891	-0.20126	-0.16739	0.064697	0.090179	-0.11231	-0.42252	-0.028992	-0.019989	0.02182	-0.032043	0.020294	-0.15472	0.45792	-0.004578	-0.014648
50.342	0.026093	0.27023	0.03479	0.004578	0.11307	0.10147	-0.13489	-0.035095	-0.016937	-0.001068	0.013428	-0.00412	-0.029297	0.066681	-0.018311	-0.005341	0.021973	-0.20172	0.065765	0.090942	-0.084076	-0.11871	-0.46646	-0.087128	-0.005341	0.002594	-0.1886	0.012054	-0.5278	0.18204	0.000916	-0.029602
50.343	0.025024	0.30991	0.032959	0.00946	0.074463	0.15213	-0.083923	-0.027771	-0.073853	-0.011902	0.006866	0.004578	-0.017242	0.014801	-0.011139	-0.009003	0.022125	-0.20264	0.22339	0.04715	0.045624	-0.024872	-0.42648	-0.050659	-0.022125	0.01709	-0.31158	-0.011139	-0.46616	0.25711	0.000305	-0.019836
50.344	0.013275	0.3125	0.036926	0.020752	0.023499	0.14236	-0.079346	-0.004425	-0.1622	-0.017395	0.006714	0.002594	-0.002289	-0.032043	0.009308	-0.005951	0.015259	-0.25192	0.14679	0.001831	0.30624	-0.025024	-0.36591	-0.058746	-0.026398	0.020752	-0.16037	-0.024109	-0.15503	0.1503	0	-0.028229
50.345	0.005188	0.30045	0.026093	0.012054	0.038757	0.075378	-0.034027	-0.000458	-0.15518	-0.014496	0.006409	0.002441	0.033722	-0.07431	-0.002136	-0.007782	-0.001984	-0.19089	0.1152	-0.018768	0.27344	-0.11688	-0.46616	0.015564	-0.025024	0.021515	0.44876	-0.02243	0.18967	-0.2945	-0.005341	-0.021362
50.346	0.016785	0.29587	0.011292	0.019073	0.055389	0.014648	-0.056152	-0.00412	-0.10315	-0.005035	0.009613	0.001984	0.036926	-0.036011	0.002899	-0.005341	-0.022888	-0.11047	0.084381	-0.037842	-0.005493	-0.29465	-0.50049	0.1471	0.001831	0.018463	1.001	-0.033875	0.26947	-0.65933	0.005035	-0.019989
50.347	0.016632	0.25101	0.002594	-0.006866	0.035553	-0.030365	-0.051422	-0.010681	-0.064087	-0.00824	0.010376	-0.004578	0.039215	0.001831	0.012512	-0.009613	-0.028229	-0.19379	0.10483	-0.028992	-0.10941	-0.23682	-0.48111	0.18951	0.019836	0.014801	0.61935	-0.052795	0.013885	-1.4522	-0.001373	-0.0177
50.348	-0.000458	0.20187	0.006561	0.002594	-0.031433	-0.064392	-0.034943	-0.015106	-0.067444	-0.00473	0.018921	0.00473	0.04837	0.040131	0.002899	-0.005341	-0.001984	-0.23117	0.091248	-0.064697	0.032501	-0.10086	-0.47348	0.13702	0.007172	-0.030518	-0.15045	-0.025787	-0.070038	-1.7998	-0.001221	-0.024719
50.349	0.006714	0.10452	0.012512	0.005188	-0.10407	0.00412	-0.019531	-0.000458	-0.050201	-0.000305	0.006104	0.002747	0.028687	0.085449	0.009003	0.00351	0.02243	-0.29266	0.35797	-0.054016	0.14648	-0.066528	-0.49637	0.061798	-0.005341	-0.084839	-0.33081	0.11078	-0.17227	-0.95795	-0.002441	-0.005951
